<svg width="14" height="20" viewBox="0 0 14 20" fill="none" xmlns="http://www.w3.org/2000/svg">
<path d="M1.512 16.0003C1.404 16.0003 1.35 15.9463 1.35 15.8383C1.35 14.8063 1.368 13.7383 1.404 12.6343C1.44 11.5303 1.494 10.4443 1.566 9.3763C1.638 8.3083 1.71 7.3123 1.782 6.3883C1.866 5.4643 1.95 4.67831 2.034 4.0303C2.046 3.9823 2.058 3.9463 2.07 3.92231C2.094 3.8983 2.13 3.8863 2.178 3.8863H2.862C2.934 3.8863 2.982 3.8983 3.006 3.92231C3.042 3.9463 3.072 3.9823 3.096 4.0303L6.3 9.5563C6.336 9.6283 6.378 9.6643 6.426 9.6643C6.474 9.6643 6.516 9.6343 6.552 9.5743L9.72 4.0663C9.756 3.9943 9.792 3.9463 9.828 3.92231C9.864 3.8983 9.918 3.8863 9.99 3.8863H10.62C10.728 3.8863 10.788 3.9523 10.8 4.0843C10.872 4.7203 10.95 5.4883 11.034 6.3883C11.118 7.2883 11.19 8.2663 11.25 9.3223C11.322 10.3783 11.376 11.4583 11.412 12.5623C11.46 13.6663 11.484 14.7403 11.484 15.7843C11.484 15.8683 11.472 15.9283 11.448 15.9643C11.424 15.9883 11.376 16.0003 11.304 16.0003H10.35C10.242 16.0003 10.188 15.9403 10.188 15.8203C10.188 15.3163 10.176 14.7523 10.152 14.1283C10.14 13.5043 10.122 12.8563 10.098 12.1843C10.074 11.5123 10.044 10.8463 10.008 10.1863C9.972 9.5143 9.93 8.8903 9.882 8.3143C9.846 7.7263 9.81 7.2163 9.774 6.7843C9.762 6.7003 9.726 6.6583 9.666 6.6583C9.606 6.6583 9.558 6.6883 9.522 6.74831L6.822 11.3383C6.774 11.4103 6.702 11.4463 6.606 11.4463H6.192C6.108 11.4463 6.036 11.4043 5.976 11.3203L3.312 6.7843C3.276 6.7123 3.228 6.6823 3.168 6.6943C3.108 6.6943 3.078 6.7363 3.078 6.8203C3.03 7.3723 2.976 8.0023 2.916 8.7103C2.868 9.4183 2.82 10.1743 2.772 10.9783C2.736 11.7703 2.706 12.5863 2.682 13.4263C2.67 14.2663 2.664 15.0883 2.664 15.8923C2.664 15.9643 2.628 16.0003 2.556 16.0003H1.512Z" fill="black"/>
<path d="M11.8672 0.0285959C12.2379 -0.0802046 12.6272 0.13255 12.7363 0.503205L13.7568 3.97293L12.4141 4.36942L11.8701 2.51981L6.63574 12.1145C6.61161 12.1588 6.58236 12.1989 6.55078 12.2356L5.67773 10.9456L10.6406 1.84891L8.95703 2.34305L8.53223 1.00906L11.8672 0.0285959Z" fill="#10B981"/>
</svg>
